<svg xmlns="http://www.w3.org/2000/svg" width="512" height="512" xml:space="preserve"><path fill-rule="evenodd" clip-rule="evenodd" fill="#007EE5" d="M500.344 126.925c-.047.047-.047.086-.109.141l-30.938 24.993c-18.578 14.961-42.124 23.946-67.796 23.946-19.453 0-37.594-5.289-53.375-14.282l-43.343-26.243.031-.039c-5.219-2.672-8.812-8.016-8.812-14.258 0-8.868 7.188-16.055 16.078-16.055 2.703 0 5.203.734 7.438 1.914l.062-.109 46.421 27.868c10.844 5.969 23.25 9.454 36.5 9.454 16.672 0 32.016-5.492 44.53-14.602l24.844-19.329c1.594-1.453 2.625-3.516 2.625-5.828 0-2.672-1.375-4.969-3.375-6.422l-93.03-62.018C373.563 33.508 368.392 32 362.829 32c-7.672 0-14.641 2.781-20.094 7.359l-54.733 48.635-31.988 17.938-92.101 55.775c-15.75 9.024-33.96 14.297-53.406 14.297-25.578 0-49.078-8.938-67.578-23.805L11.75 127.026c-.055-.031-.031-.07-.086-.102C4.578 121.417 0 112.799 0 103.111c0-9.914 4.898-18.657 12.328-24.141l100.835-67.705c.164-.109.32-.18.484-.289C123.874 4.03 136.217-.001 149.506-.001c16.093 0 30.75 5.953 42 15.727l22.391 19.5-.023.023c3.43 3.008 5.633 7.391 5.633 12.305 0 9.079-7.352 16.43-16.43 16.43-4.758 0-9.008-2.039-12-5.258l-21.797-19.39C163.827 34.766 156.843 32 149.187 32c-5.562 0-10.742 1.508-15.266 4.055L40.882 98.072c-2.008 1.453-3.367 3.75-3.367 6.422 0 2.312 1.023 4.375 2.617 5.812l24.992 19.43c12.484 9.04 27.766 14.516 44.382 14.516 13.312 0 25.758-3.516 36.609-9.508l77.28-46.376 32.617-16.438 64.535-56.236c11.218-9.782 25.89-15.696 41.952-15.696 13.297 0 25.641 4.031 35.859 10.977.188.125.344.195.516.305l100.749 67.65C507.094 84.423 512 93.158 512 103.111c0 9.688-4.562 18.306-11.656 23.814zM11.664 241.069c.031-.031.055-.047.086-.086l31.414-25.384c18.445-14.766 41.875-23.594 67.343-23.594 19.391 0 37.547 5.242 53.265 14.211l44.125 26.712v.016c4.844 2.766 8.109 7.898 8.109 13.867 0 8.868-7.188 16.055-16.07 16.055-2.852 0-5.469-.805-7.805-2.117l-.055.094-45.812-27.5c-10.891-6.063-23.398-9.602-36.758-9.602-16.671 0-32.007 5.492-44.507 14.586l-24.867 19.344c-1.594 1.469-2.617 3.516-2.617 5.828 0 2.688 1.359 4.984 3.367 6.422l92.89 61.924c4.562 2.602 9.797 4.165 15.414 4.165 7.695 0 14.742-2.821 20.179-7.431L224.006 280l31.957-17.888.051-.051 9.332-5.648 1.156-.664-.031-.016 81.812-49.556c15.719-8.954 33.844-14.172 53.219-14.172 25.562 0 49.015 8.922 67.53 23.735l31.203 25.204c.062.039.062.094.109.125 7.094 5.508 11.656 14.125 11.656 23.813 0 9.915-4.875 18.649-12.281 24.142l-100.843 67.689c-.172.109-.328.18-.516.305-10.219 6.945-22.562 10.977-35.859 10.977-16.062 0-30.75-5.922-41.999-15.711l-20.891-18.228c-4.359-2.961-7.234-7.953-7.234-13.617 0-9.078 7.359-16.438 16.438-16.438 4.625 0 8.797 1.907 11.781 4.993l22.015 19.555c5.453 4.641 12.5 7.462 20.219 7.462 5.609 0 10.844-1.563 15.406-4.165l92.89-61.924c2-1.438 3.375-3.734 3.375-6.422 0-2.336-1.031-4.359-2.625-5.828l-24.828-19.305c-12.515-9.118-27.858-14.625-44.546-14.625-13.328 0-25.781 3.539-36.688 9.563L288.002 280l-31.988 16.055-64.507 56.205c-11.25 9.797-25.922 15.734-42 15.734-13.289 0-25.633-4.031-35.859-10.977-.164-.109-.32-.18-.484-.289l-100.905-67.76C4.883 283.461 0 274.766 0 264.882c0-9.688 4.578-18.305 11.664-23.813zm100.351 142.926c8.828 0 15.984 7.18 15.984 16.009v3.75c0 2.672 1.414 4.93 3.43 6.383l101.226 63.291c.234.125.469.164.703.305a43.78 43.78 0 0 0 22.656 6.281 43.84 43.84 0 0 0 23.238-6.641c.219-.141.422-.18.656-.305l60.499-37.813c2.922-2.031 6.453-3.251 10.297-3.251 9.969 0 18.062 8.095 18.062 18.063 0 6.586-3.531 12.289-8.812 15.454l.047.086-54.28 32.563c-.156.086-.297.156-.469.25-14.406 8.625-31.25 13.578-49.238 13.578-18.172 0-35.14-5.039-49.617-13.797-.219-.125-.398-.211-.609-.336l-93.828-56.299c-9.578-6.461-15.945-17.368-15.945-29.813v-11.75c0-8.828 7.156-16.008 16-16.008zm288.002 0c8.828 0 15.984 7.18 15.984 16.009 0 8.844-7.156 16-15.984 16-8.844 0-16-7.156-16-16 0-8.829 7.156-16.009 16-16.009z"/></svg>